<svg width="421" height="68" viewBox="0 0 421 68" fill="none" xmlns="http://www.w3.org/2000/svg">
<path d="M102.492 48.9862C101.226 48.9862 99.9871 48.8794 98.7747 48.6669C97.5622 48.4544 96.4373 48.1483 95.4005 47.7492C94.3631 47.3501 93.4266 46.8453 92.5922 46.2325C92.2689 45.993 92.0464 45.7205 91.9255 45.4144C91.8045 45.1089 91.7772 44.8028 91.8446 44.4967C91.9115 44.1912 92.0464 43.932 92.2488 43.7183C92.4506 43.5058 92.6997 43.3858 92.9963 43.3594C93.2923 43.333 93.6156 43.426 93.9663 43.6385C95.1787 44.4901 96.4713 45.1089 97.8454 45.4943C99.2195 45.8802 100.768 46.0729 102.492 46.0729C104.916 46.0729 106.715 45.6275 107.886 44.7362C109.058 43.8449 109.644 42.6679 109.644 41.2046C109.644 40.0073 109.22 39.0697 108.371 38.3909C107.523 37.7127 106.102 37.1737 104.108 36.7746L99.9057 35.9367C97.3732 35.4049 95.4807 34.5334 94.2282 33.3228C92.9757 32.1122 92.3491 30.4965 92.3491 28.4738C92.3491 27.2236 92.6049 26.0863 93.1166 25.0617C93.6284 24.0378 94.3424 23.1597 95.2583 22.428C96.1736 21.6964 97.2651 21.131 98.5316 20.7319C99.7975 20.3327 101.198 20.1335 102.734 20.1335C104.431 20.1335 106.013 20.367 107.482 20.8321C108.95 21.2979 110.277 21.9965 111.462 22.9274C111.758 23.1669 111.961 23.44 112.068 23.7455C112.176 24.0516 112.189 24.3439 112.109 24.6236C112.029 24.9033 111.887 25.1361 111.685 25.3222C111.483 25.5089 111.227 25.6151 110.917 25.6415C110.607 25.6685 110.264 25.5617 109.887 25.3222C108.809 24.5239 107.691 23.9453 106.532 23.5864C105.374 23.2275 104.094 23.0474 102.693 23.0474C101.293 23.0474 100.033 23.2605 98.9959 23.6861C97.9585 24.1122 97.1502 24.7304 96.5716 25.5419C95.9918 26.3539 95.7026 27.2915 95.7026 28.3556C95.7026 29.6328 96.0994 30.6442 96.8943 31.3884C97.6887 32.1339 98.9886 32.6794 100.794 33.0245L104.996 33.9026C107.717 34.4614 109.73 35.3065 111.037 36.4367C112.344 37.568 112.997 39.1046 112.997 41.0462C112.997 42.2172 112.754 43.2945 112.269 44.2789C111.785 45.2632 111.084 46.1083 110.168 46.8129C109.252 47.5181 108.147 48.0571 106.855 48.4292C105.562 48.8014 104.107 48.988 102.49 48.988L102.492 48.9862Z" fill="#444D35"/>
<path d="M126.171 48.9064C125.659 48.9064 125.255 48.7527 124.958 48.4472C124.662 48.1417 124.514 47.7228 124.514 47.1904V23.3259H115.422C114.937 23.3259 114.56 23.1933 114.291 22.9268C114.021 22.6609 113.887 22.3152 113.887 21.889C113.887 21.4371 114.021 21.0908 114.291 20.8513C114.56 20.6118 114.937 20.4924 115.422 20.4924H136.96C137.445 20.4924 137.822 20.6118 138.092 20.8513C138.361 21.0908 138.496 21.4371 138.496 21.889C138.496 22.341 138.361 22.6939 138.092 22.9466C137.822 23.1999 137.445 23.3259 136.96 23.3259H127.868V47.1904C127.868 47.7228 127.727 48.1417 127.444 48.4472C127.162 48.7527 126.737 48.9064 126.172 48.9064H126.171Z" fill="#444D35"/>
<path d="M152.033 48.9861C149.393 48.9861 147.096 48.3943 145.143 47.2101C143.19 46.0265 141.682 44.3568 140.617 42.2021C139.553 40.0467 139.021 37.4929 139.021 34.5399C139.021 32.3054 139.325 30.3037 139.931 28.5337C140.537 26.765 141.406 25.2615 142.537 24.0244C143.669 22.7874 145.036 21.8295 146.639 21.1513C148.241 20.4731 150.04 20.1334 152.033 20.1334C154.727 20.1334 157.05 20.7192 159.004 21.8895C160.957 23.0605 162.465 24.7165 163.53 26.858C164.594 29.0001 165.126 31.5473 165.126 34.5003C165.126 36.7348 164.816 38.7443 164.196 40.5263C163.576 42.3089 162.701 43.8256 161.57 45.0758C160.438 46.3266 159.071 47.2905 157.468 47.9694C155.865 48.6476 154.054 48.9873 152.033 48.9873V48.9861ZM152.033 46.0727C154.08 46.0727 155.811 45.6208 157.226 44.7157C158.64 43.8118 159.724 42.4944 160.478 40.7646C161.232 39.0354 161.61 36.9605 161.61 34.5387C161.61 30.8943 160.782 28.0674 159.125 26.0585C157.468 24.0503 155.104 23.0455 152.033 23.0455C150.039 23.0455 148.336 23.4981 146.921 24.4026C145.507 25.3071 144.422 26.6173 143.668 28.3333C142.913 30.0492 142.537 32.1181 142.537 34.5387C142.537 38.1573 143.371 40.9837 145.042 43.0189C146.712 45.0542 149.042 46.0721 152.033 46.0721L152.033 46.0727Z" fill="#444D35"/>
<path d="M172.721 48.9064C172.182 48.9064 171.772 48.7528 171.489 48.4473C171.205 48.1418 171.064 47.7228 171.064 47.1905V22.1688C171.064 21.61 171.212 21.1911 171.509 20.912C171.805 20.6329 172.222 20.493 172.761 20.493H182.338C185.382 20.493 187.726 21.1983 189.369 22.6081C191.012 24.0186 191.834 26.0269 191.834 28.6341C191.834 30.2841 191.463 31.7138 190.722 32.9244C189.981 34.1356 188.897 35.0533 187.47 35.6781C186.042 36.3035 184.331 36.6156 182.338 36.6156L182.742 36.097H183.55C184.601 36.097 185.516 36.3635 186.298 36.8953C187.079 37.4276 187.793 38.2787 188.44 39.4491L192.319 46.5927C192.534 46.9654 192.635 47.3309 192.622 47.6904C192.608 48.0494 192.48 48.3428 192.238 48.5685C191.996 48.7942 191.645 48.9076 191.187 48.9076C190.729 48.9076 190.352 48.8008 190.056 48.5883C189.759 48.3759 189.503 48.0698 189.288 47.6706L184.884 39.6094C184.264 38.466 183.55 37.7007 182.742 37.3148C181.934 36.9295 180.87 36.7362 179.55 36.7362H174.377V47.1917C174.377 47.724 174.242 48.143 173.973 48.4485C173.703 48.754 173.286 48.9076 172.721 48.9076L172.721 48.9064ZM174.378 34.141H181.854C184.062 34.141 185.733 33.6818 186.864 32.7641C187.996 31.8464 188.562 30.4695 188.562 28.6335C188.562 26.7975 187.996 25.5011 186.864 24.5828C185.733 23.6645 184.062 23.2059 181.854 23.2059H174.378V34.1404V34.141Z" fill="#444D35"/>
<path d="M200.099 48.9184C199.453 48.9184 198.947 48.7377 198.583 48.3776C198.217 48.0175 198.035 47.5043 198.035 46.8387V21.1754C198.035 20.4828 198.21 19.9486 198.561 19.5741C198.912 19.1995 199.383 19.0123 199.973 19.0123C200.478 19.0123 200.864 19.1023 201.131 19.2824C201.397 19.463 201.713 19.7889 202.078 20.2601L219.431 42.8455H218.377V21.0505C218.377 20.4131 218.552 19.9138 218.904 19.553C219.254 19.1929 219.753 19.0123 220.399 19.0123C221.045 19.0123 221.578 19.1929 221.915 19.553C222.252 19.9138 222.421 20.4131 222.421 21.0505V46.8801C222.421 47.5181 222.259 48.0175 221.936 48.3776C221.613 48.7377 221.184 48.9184 220.651 48.9184C220.146 48.9184 219.731 48.8211 219.409 48.6273C219.086 48.4334 218.742 48.1009 218.377 47.6291L201.11 25.0851H202.078V46.8387C202.078 47.5043 201.91 48.0175 201.573 48.3776C201.235 48.7377 200.744 48.9184 200.099 48.9184Z" fill="#78885D"/>
<path d="M231.687 48.6272C230.929 48.6272 230.345 48.4262 229.939 48.024C229.532 47.6225 229.328 47.0463 229.328 46.2979V21.6327C229.328 20.8843 229.532 20.3087 229.939 19.9065C230.345 19.505 230.929 19.3033 231.687 19.3033H247.059C247.649 19.3033 248.098 19.4492 248.407 19.7403C248.716 20.0314 248.871 20.4545 248.871 21.0091C248.871 21.5913 248.716 22.0354 248.407 22.3403C248.098 22.6459 247.65 22.7977 247.059 22.7977H233.54V31.9897H246.133C246.751 31.9897 247.207 32.1422 247.502 32.4471C247.797 32.7526 247.944 33.1823 247.944 33.7363C247.944 34.3185 247.797 34.7555 247.502 35.0466C247.207 35.3376 246.75 35.4835 246.133 35.4835H233.54V45.1335H247.059C247.649 45.1335 248.098 45.2859 248.407 45.5908C248.716 45.8963 248.871 46.3261 248.871 46.8801C248.871 47.4623 248.716 47.8992 248.407 48.1903C248.098 48.4814 247.65 48.6272 247.059 48.6272H231.687Z" fill="#78885D"/>
<path d="M254.133 48.9183C253.571 48.9183 253.108 48.7731 252.743 48.4814C252.378 48.1903 252.167 47.8157 252.111 47.3584C252.054 46.901 252.209 46.4371 252.574 45.9653L262.514 32.7802V34.5273L253.122 22.0492C252.756 21.5499 252.595 21.0655 252.637 20.5937C252.679 20.1226 252.883 19.7409 253.248 19.4498C253.613 19.1587 254.062 19.0128 254.596 19.0128C255.045 19.0128 255.445 19.1167 255.796 19.3249C256.147 19.5332 256.505 19.8867 256.87 20.3855L265.041 31.4495H263.693L271.779 20.3855C272.144 19.8861 272.502 19.5326 272.853 19.3249C273.204 19.1173 273.618 19.0128 274.095 19.0128C274.657 19.0128 275.12 19.1587 275.485 19.4498C275.85 19.7409 276.054 20.1154 276.096 20.5727C276.138 21.0301 275.962 21.5228 275.57 22.0492L266.178 34.5273V32.7802L276.075 45.9653C276.44 46.4371 276.602 46.901 276.56 47.3584C276.518 47.8157 276.313 48.1903 275.949 48.4814C275.584 48.7725 275.107 48.9183 274.517 48.9183C274.096 48.9183 273.702 48.8073 273.338 48.5858C272.973 48.3643 272.594 48.018 272.201 47.5463L263.525 35.8166H265.125L256.491 47.5463C256.126 48.018 255.754 48.3643 255.375 48.5858C254.996 48.8073 254.581 48.9183 254.133 48.9183Z" fill="#78885D"/>
<path d="M291.112 48.9183C290.41 48.9183 289.87 48.7239 289.491 48.3361C289.112 47.9484 288.922 47.4076 288.922 46.7138V22.9219H279.993C279.404 22.9219 278.94 22.7629 278.603 22.4436C278.267 22.1249 278.098 21.6741 278.098 21.0919C278.098 20.5097 278.266 20.0662 278.603 19.7607C278.94 19.4558 279.404 19.3033 279.993 19.3033H302.188C302.806 19.3033 303.283 19.4558 303.62 19.7607C303.957 20.0662 304.126 20.5091 304.126 21.0919C304.126 21.6747 303.957 22.1255 303.62 22.4436C303.283 22.7629 302.805 22.9219 302.188 22.9219H293.259V46.7138C293.259 47.407 293.084 47.9478 292.733 48.3361C292.382 48.7239 291.842 48.9183 291.112 48.9183Z" fill="#78885D"/>
<path d="M309.289 48.6273C308.697 48.6273 308.245 48.4749 307.936 48.1682C307.626 47.8627 307.471 47.4167 307.471 46.8315V22.2888C307.471 21.7036 307.625 21.2583 307.936 20.9522C308.245 20.6467 308.697 20.493 309.289 20.493H317.088C321.695 20.493 325.251 21.6904 327.756 24.0846C330.261 26.4788 331.514 29.9648 331.514 34.5401C331.514 36.8286 331.197 38.8441 330.565 40.5859C329.931 42.3289 328.995 43.7981 327.756 44.9955C326.517 46.1929 325.009 47.0974 323.231 47.709C321.452 48.3212 319.405 48.6267 317.088 48.6267H309.289V48.6273ZM310.785 45.8334H316.846C318.731 45.8334 320.368 45.5939 321.756 45.115C323.143 44.636 324.302 43.9314 325.231 42.9999C326.16 42.069 326.854 40.8914 327.312 39.4683C327.77 38.0452 327.999 36.4025 327.999 34.5395C327.999 30.7882 327.07 27.9745 325.211 26.0989C323.352 24.2233 320.564 23.2852 316.846 23.2852H310.785V45.8328V45.8334Z" fill="#444D35"/>
<path d="M349.418 48.9861C346.777 48.9861 344.481 48.3943 342.528 47.2101C340.575 46.0265 339.066 44.3568 338.002 42.2021C336.937 40.0467 336.406 37.4929 336.406 34.5399C336.406 32.3054 336.71 30.3037 337.315 28.5337C337.921 26.765 338.79 25.2615 339.922 24.0244C341.054 22.7874 342.42 21.8295 344.024 21.1513C345.626 20.4731 347.425 20.1334 349.418 20.1334C352.111 20.1334 354.435 20.7192 356.389 21.8895C358.341 23.0605 359.85 24.7165 360.914 26.858C361.979 29.0001 362.51 31.5473 362.51 34.5003C362.51 36.7348 362.2 38.7443 361.581 40.5263C360.961 42.3089 360.086 43.8256 358.955 45.0758C357.823 46.3266 356.456 47.2905 354.853 47.9694C353.25 48.6476 351.439 48.9873 349.418 48.9873V48.9861ZM349.418 46.0727C351.465 46.0727 353.196 45.6208 354.61 44.7157C356.025 43.8118 357.109 42.4944 357.863 40.7646C358.617 39.0354 358.995 36.9605 358.995 34.5387C358.995 30.8943 358.166 28.0674 356.51 26.0585C354.853 24.0503 352.489 23.0455 349.418 23.0455C347.424 23.0455 345.72 23.4981 344.306 24.4026C342.892 25.3071 341.807 26.6173 341.053 28.3333C340.298 30.0492 339.921 32.1181 339.921 34.5387C339.921 38.1573 340.756 40.9837 342.426 43.0189C344.097 45.0542 346.427 46.0721 349.417 46.0721L349.418 46.0727Z" fill="#444D35"/>
<path d="M380.408 48.9862C377.768 48.9862 375.471 48.3944 373.518 47.2102C371.565 46.0266 370.057 44.3569 368.992 42.2022C367.928 40.0469 367.396 37.493 367.396 34.54C367.396 32.3055 367.7 30.3038 368.306 28.5339C368.912 26.7651 369.781 25.2616 370.912 24.0246C372.044 22.7876 373.411 21.8296 375.014 21.1514C376.616 20.4732 378.415 20.1335 380.408 20.1335C383.102 20.1335 385.425 20.7193 387.379 21.8897C389.332 23.0607 390.84 24.7166 391.905 26.8581C392.969 29.0002 393.501 31.5475 393.501 34.5004C393.501 36.735 393.191 38.7444 392.571 40.5264C391.951 42.309 391.076 43.8257 389.945 45.0759C388.813 46.3267 387.446 47.2907 385.843 47.9695C384.24 48.6477 382.429 48.9874 380.408 48.9874V48.9862ZM380.408 46.0729C382.455 46.0729 384.186 45.6209 385.601 44.7158C387.015 43.8119 388.099 42.4945 388.853 40.7647C389.607 39.0355 389.985 36.9606 389.985 34.5388C389.985 30.8944 389.157 28.0675 387.5 26.0586C385.843 24.0504 383.479 23.0456 380.408 23.0456C378.414 23.0456 376.711 23.4982 375.296 24.4027C373.882 25.3072 372.797 26.6174 372.043 28.3334C371.288 30.0494 370.912 32.1182 370.912 34.5388C370.912 38.1574 371.746 40.9838 373.417 43.019C375.087 45.0543 377.417 46.0723 380.408 46.0723L380.408 46.0729Z" fill="#444D35"/>
<path d="M401.098 48.9064C400.559 48.9064 400.149 48.7528 399.866 48.4473C399.582 48.1418 399.441 47.7228 399.441 47.1905V22.1688C399.441 21.61 399.589 21.1911 399.886 20.912C400.182 20.6329 400.599 20.493 401.138 20.493H410.715C413.759 20.493 416.103 21.1983 417.746 22.6081C419.389 24.0186 420.211 26.0269 420.211 28.6341C420.211 30.2841 419.84 31.7138 419.099 32.9244C418.358 34.1356 417.274 35.0533 415.847 35.6781C414.418 36.3035 412.708 36.6156 410.715 36.6156L411.119 36.097H411.927C412.978 36.097 413.893 36.3635 414.675 36.8953C415.456 37.4276 416.17 38.2787 416.817 39.4491L420.696 46.5927C420.911 46.9654 421.012 47.3309 420.999 47.6904C420.985 48.0494 420.857 48.3428 420.615 48.5685C420.372 48.7942 420.022 48.9076 419.564 48.9076C419.106 48.9076 418.729 48.8008 418.433 48.5883C418.136 48.3759 417.88 48.0698 417.665 47.6706L413.261 39.6094C412.641 38.466 411.927 37.7007 411.119 37.3148C410.311 36.9295 409.247 36.7362 407.927 36.7362H402.754V47.1917C402.754 47.724 402.619 48.143 402.35 48.4485C402.08 48.754 401.663 48.9076 401.097 48.9076L401.098 48.9064ZM402.755 34.141H410.231C412.439 34.141 414.11 33.6818 415.241 32.7641C416.373 31.8464 416.939 30.4695 416.939 28.6335C416.939 26.7975 416.373 25.5011 415.241 24.5828C414.11 23.6645 412.439 23.2059 410.231 23.2059H402.755V34.1404V34.141Z" fill="#444D35"/>
<path d="M38.1035 15.6631L38.0977 15.6637C38.0994 15.6637 38.1017 15.6631 38.1035 15.6631Z" fill="#329B80"/>
<path d="M38.1035 15.6631C38.1035 15.6631 38.0994 15.6637 38.0977 15.6637H38.1035V15.6631Z" fill="white"/>
<path d="M75.5447 27.3905C75.0628 28.2344 74.0253 28.5279 73.1861 28.1389L65.7152 24.686L64.7707 24.2496C64.6905 24.1446 64.5945 24.051 64.4839 23.9754L62.1994 22.4052L58.1111 19.5951L40.423 7.43569C39.8651 7.05456 39.2014 6.8535 38.5311 6.8535C38.4405 6.8535 38.35 6.8577 38.2594 6.8655C37.7149 6.90872 37.1758 7.08517 36.6933 7.40628C36.6915 7.40808 28.3308 12.9587 21.2853 17.6361C20.9207 17.8773 20.5603 18.1174 20.2054 18.3533C20.1762 18.3725 20.1482 18.3911 20.1191 18.4103C18.6727 19.3706 17.3083 20.2769 16.1171 21.0674C13.5081 22.7996 11.7287 23.9814 11.7287 23.982C11.6606 24.03 11.5998 24.0804 11.5445 24.1344L11.0176 24.3709L2.5737 28.1515C0.538393 29.002 -1.01377 26.3125 0.807012 25.0245C0.80762 25.0227 5.21007 22.0997 10.8961 18.3251C12.5534 17.2249 14.3188 16.0521 16.1171 14.8577C17.473 13.9586 18.8471 13.0457 20.2054 12.1436C20.5664 11.9042 20.9268 11.6653 21.2853 11.427C28.9805 6.31872 35.8996 1.7254 35.9008 1.7236C36.5802 1.27165 37.3387 1.02317 38.1026 0.96255C39.1722 0.874921 40.254 1.15701 41.1437 1.76502L58.1118 13.4287L62.2 16.24L74.9649 25.0149C75.7124 25.5287 75.9932 26.609 75.5447 27.3911V27.3905Z" fill="#444D35"/>
<path d="M62.1977 42.3991C62.1953 37.9696 62.1983 33.5401 62.1807 29.1119C62.1759 27.81 61.5997 26.8155 60.4365 26.1445C57.6002 24.5065 54.8259 22.7684 51.9841 21.1382C48.52 19.1498 45.0395 17.1931 41.531 15.2815C40.0451 14.4712 38.4966 14.4154 36.9529 15.132C36.2741 15.4477 35.6287 15.8355 34.9717 16.198C29.561 19.1876 24.1504 22.176 18.7427 25.171C18.2912 25.4206 17.7971 25.6127 17.4087 25.9584C16.9456 26.3714 16.516 26.8239 16.1167 27.2993C15.5205 28.0075 15.2069 28.7998 15.213 29.7445C15.2342 33.4513 15.2215 37.1575 15.2215 40.8644H15.23C15.23 44.6864 15.2197 48.5085 15.2367 52.3299C15.2409 53.3551 15.5825 54.2638 16.4497 54.9096C16.8065 55.1755 17.2112 55.3639 17.5892 55.595C22.0136 58.3007 26.4938 60.9158 31.0257 63.442C32.8525 64.4606 34.7104 65.4263 36.5014 66.5078C37.3601 67.027 38.2936 67.1957 39.2484 66.9262C40.273 66.6369 41.2752 66.2732 42.2172 65.748C48.1778 62.4223 53.9617 58.7971 59.9461 55.5098C61.4672 54.6743 62.202 53.3599 62.1989 51.6355C62.1929 48.5571 62.1989 45.4793 62.1971 42.4009L62.1977 42.3991ZM37.5576 62.0712V62.3917C37.0757 62.0676 36.6576 61.7861 36.2382 61.5046C33.5569 59.6986 30.7571 58.0847 27.9487 56.4821C25.3257 54.9852 22.7021 53.4859 20.115 51.9272C19.8865 51.7904 19.8081 51.6439 19.8081 51.3804C19.8166 44.774 19.8148 38.1689 19.8148 31.5625V31.2546C19.9278 31.209 19.9886 31.2852 20.056 31.326C25.804 34.7807 31.5502 38.2367 37.2994 41.6884C37.4774 41.7953 37.5643 41.9039 37.5631 42.1272C37.5564 48.7744 37.557 55.4228 37.557 62.07L37.5576 62.0712ZM58.0688 51.9398C54.928 54.0849 51.648 56.0092 48.3401 57.8872C45.9146 59.264 43.4898 60.6427 41.1093 62.0964C40.967 62.1828 40.8224 62.2674 40.6674 62.3599C40.5939 62.2452 40.6225 62.1396 40.6225 62.0418C40.6206 55.4144 40.6225 48.7864 40.614 42.159C40.614 41.9111 40.7027 41.7887 40.9032 41.6686C46.6172 38.2385 52.3281 34.8035 58.039 31.3692C58.1277 31.3164 58.2207 31.269 58.3635 31.191V31.5619C58.3635 38.1689 58.3617 44.7752 58.3696 51.3822C58.3702 51.6445 58.2845 51.7928 58.0688 51.9398Z" fill="#78885D"/>
<path d="M26.8125 35.3881V43.9547L28.5306 42.2586L29.4665 45.3436V36.7025L53.5651 22.0583L51.0466 20.601L26.8125 35.3881Z" fill="#78885D"/>
</svg>
